<svg height="512" viewBox="0 0 48 48" width="512" xmlns="http://www.w3.org/2000/svg"><g id="Rating"><path d="m43 4h-32a4 4 0 0 0 -4 4v20a4 4 0 0 0 4 4h22l7 6 3-6a4 4 0 0 0 4-4v-20a4 4 0 0 0 -4-4zm-25.4 17-2.6-1.37-2.6 1.37.5-2.89-2.11-2.05 2.91-.43 1.3-2.63 1.3 2.63 2.91.43-2.11 2.05zm12 0-2.6-1.37-2.6 1.37.5-2.89-2.11-2.05 2.91-.43 1.3-2.63 1.3 2.63 2.91.43-2.11 2.05zm11.5-2.89.5 2.89-2.6-1.37-2.6 1.37.5-2.89-2.11-2.05 2.91-.43 1.3-2.63 1.3 2.63 2.91.43z"/><path d="m5 28v-12a4 4 0 0 0 -4 4c0 15-.39 15.25 1.17 16.83a4 4 0 0 0 2.83 1.17l3 6 7-6h12a4 4 0 0 0 4-4h-20a6 6 0 0 1 -6-6z"/></g></svg>