<?xml version="1.0"?>
<svg xmlns="http://www.w3.org/2000/svg" id="Layer_1" data-name="Layer 1" viewBox="0 0 64 64"><path d="M26.77,19.84a19.147,19.147,0,0,1-3.13,4.99c-2.3,2.71-2.43,5.38-.38,7.51a5.1,5.1,0,0,0,3.71,1.74,6,6,0,0,0,3.24-1.07,3.275,3.275,0,0,1,3.58,0c2.5,1.63,4.97,1.39,6.95-.67,2.05-2.13,1.92-4.8-.38-7.51a19.147,19.147,0,0,1-3.13-4.99l-.04-.09a5.625,5.625,0,0,0-10.42.09Z"/><path d="M28.14,15.25a1.991,1.991,0,0,0,.93-.22c1.1-.58,1.49-2.1,1.19-4.53a18.027,18.027,0,0,0-.49-2.43,9.731,9.731,0,0,0-.7-1.93A3.932,3.932,0,0,0,26.63,4.2a4.17,4.17,0,0,0-3.13.34,4.115,4.115,0,0,0-1.79,5.52C22.36,11.27,25.66,15.25,28.14,15.25Z"/><path d="M16.04,19.57a11.575,11.575,0,0,0,5.56,1.98,2.4,2.4,0,0,0,1.96-.77c.69-.88.51-2.24-.54-4.06a11.822,11.822,0,0,0-2.37-2.98A3.325,3.325,0,0,0,18,13.07a3.884,3.884,0,0,0-3.23,4.08A3.4,3.4,0,0,0,16.04,19.57Z"/><path d="M34.93,14.8a1.886,1.886,0,0,0,.93.23c2.48,0,5.78-3.99,6.43-5.2a3.916,3.916,0,0,0,.25-3.11,4.273,4.273,0,0,0-5.17-2.75,3.947,3.947,0,0,0-2.44,1.95C34.2,7.29,32.43,13.47,34.93,14.8Z"/><path d="M40.44,20.55a2.324,2.324,0,0,0,1.94.78,7.637,7.637,0,0,0,2.13-.36,12.081,12.081,0,0,0,3.45-1.62,3.727,3.727,0,0,0-4.61-5.84,11.822,11.822,0,0,0-2.37,2.98C39.93,18.31,39.75,19.67,40.44,20.55Z"/><path d="M12.386,51.4a.99.99,0,0,0-.681.936v6.851a1,1,0,0,0,1,1H29.26a1,1,0,0,0,1-1V52.337a1,1,0,0,0-1-1h-.713v-7.22a1,1,0,0,0-.382-.787L17.144,34.683A8.2,8.2,0,0,0,9.48,33.355V19a1,1,0,0,0-.292-.707L3.707,12.811A1,1,0,0,0,2,13.518V40.006a1,1,0,0,0,.273.687ZM28.26,58.188H13.705V53.337H28.26ZM4,15.932l3.48,3.481V34.869a.983.983,0,0,0,.045.222,1.143,1.143,0,0,0,.027.132,1,1,0,0,0,.228.357l0,.006,7.764,7.536a1,1,0,1,0,1.392-1.436l-6.692-6.5a6.222,6.222,0,0,1,5.661,1.066L26.547,44.6v6.734H15.076L4,39.609Z"/><path d="M61.383,12.594a1,1,0,0,0-1.09.217l-5.481,5.481A1,1,0,0,0,54.52,19V33.355a8.2,8.2,0,0,0-7.664,1.328L35.835,43.33a1,1,0,0,0-.382.787v7.22H34.74a1,1,0,0,0-1,1v6.851a1,1,0,0,0,1,1H51.3a1,1,0,0,0,1-1V52.337a.99.99,0,0,0-.681-.936L61.727,40.693A1,1,0,0,0,62,40.006V13.518A1,1,0,0,0,61.383,12.594ZM50.3,58.188H35.74V53.337H50.3ZM60,39.609,48.924,51.337H37.453V44.6l10.638-8.347a6.22,6.22,0,0,1,5.661-1.066l-6.692,6.5a1,1,0,1,0,1.392,1.436l7.764-7.536,0-.006a1,1,0,0,0,.228-.357,1.143,1.143,0,0,0,.027-.132.983.983,0,0,0,.045-.222V19.413L60,15.932Z"/></svg>
