<svg id="Capa_1" enable-background="new 0 0 512 512" height="512" viewBox="0 0 512 512" width="512" xmlns="http://www.w3.org/2000/svg"><g><path d="m498.941 200.291-37.329-7.465c-4.107-13.613-9.55-26.757-16.255-39.257l21.113-31.669c3.967-5.95 3.183-13.872-1.874-18.927l-56.568-56.569c-5.056-5.056-12.978-5.84-18.927-1.875l-31.671 21.113c-12.499-6.704-25.643-12.146-39.257-16.254l-7.465-37.33c-1.401-7.011-7.558-12.058-14.708-12.058h-80c-7.15 0-13.307 5.047-14.709 12.058l-7.465 37.33c-13.614 4.108-26.758 9.551-39.257 16.254l-31.671-21.113c-5.948-3.965-13.871-3.181-18.927 1.875l-56.568 56.569c-5.057 5.056-5.841 12.978-1.874 18.927l21.113 31.669c-6.705 12.5-12.147 25.644-16.255 39.257l-37.329 7.465c-7.011 1.402-12.058 7.559-12.058 14.709v80c0 7.15 5.047 13.307 12.059 14.708l37.329 7.466c4.107 13.612 9.55 26.756 16.255 39.256l-21.113 31.67c-3.967 5.949-3.182 13.871 1.874 18.927l56.568 56.568c5.057 5.057 12.978 5.841 18.927 1.875l31.022-20.68v-94.165c-23.492-25.005-37.921-58.6-37.921-95.625 0-77.32 62.68-140 140-140s140 62.68 140 140c0 37.025-14.429 70.62-37.921 95.625v94.165l31.022 20.68c2.538 1.692 5.435 2.52 8.315 2.52 3.871 0 7.713-1.495 10.611-4.394l56.568-56.568c5.056-5.056 5.841-12.978 1.874-18.927l-21.113-31.67c6.705-12.5 12.147-25.644 16.255-39.256l37.329-7.466c7.013-1.402 12.06-7.559 12.06-14.709v-80c0-7.15-5.047-13.307-12.059-14.709z"/><path d="m303.519 172.811c-7.549-4.373-17.127.267-18.374 8.901l-9.145 63.288h-40l-9.144-63.288c-1.248-8.634-10.825-13.274-18.374-8.901-29.289 16.965-47.482 48.459-47.482 82.189 0 36.552 20.47 69.25 53.421 85.333l1.579.771v155.896c0 8.284 6.716 15 15 15h50c8.284 0 15-6.716 15-15v-155.896l1.579-.771c32.951-16.083 53.421-48.781 53.421-85.333 0-33.73-18.193-65.224-47.481-82.189z"/></g></svg>