<svg enable-background="new 0 0 32 32" height="512" viewBox="0 0 32 32" width="512" xmlns="http://www.w3.org/2000/svg"><g id="Layer_6"><path d="m18.138 29.868-2.229.025c-.5.006-.907-.401-.901-.901l.025-2.229c.003-.233.096-.455.261-.62l11.107-11.107c.348-.348.912-.348 1.26 0l2.203 2.203c.348.348.348.912 0 1.26l-11.106 11.108c-.165.165-.387.259-.62.261z"/><path d="m20.38 2h-12.82c-2.761 0-5 2.239-5 5v18c0 2.761 2.239 5 5 5h6.173c-.147-.318-.23-.664-.226-1.025l.025-2.228c.008-.631.257-1.222.701-1.665l11.106-11.105c.012-.012.027-.02.039-.032v-6.945c.002-2.761-2.237-5-4.998-5zm-8.18 21.9h-4.85c-.497 0-.9-.403-.9-.9s.403-.9.9-.9h4.85c.497 0 .9.403.9.9s-.403.9-.9.9zm5.393-7h-10.244c-.497 0-.9-.403-.9-.9s.403-.9.9-.9h10.244c.497 0 .9.403.9.9s-.403.9-.9.9zm3-7h-13.244c-.497 0-.9-.403-.9-.9s.403-.9.9-.9h13.244c.497 0 .9.403.9.9s-.403.9-.9.9z"/></g></svg>