<?xml version="1.0" encoding="UTF-8" standalone="no"?>
<!-- Created with Inkscape (http://www.inkscape.org/) -->

<svg
   version="1.1"
   id="svg4959"
   xml:space="preserve"
   width="682.66669"
   height="682.66669"
   viewBox="0 0 682.66669 682.66669"
   xmlns="http://www.w3.org/2000/svg"
   xmlns:svg="http://www.w3.org/2000/svg"><defs
     id="defs4963"><clipPath
       clipPathUnits="userSpaceOnUse"
       id="clipPath4973"><path
         d="M 0,512 H 512 V 0 H 0 Z"
         id="path4971" /></clipPath></defs><g
     id="g4965"
     transform="matrix(1.3333333,0,0,-1.3333333,0,682.66667)"><g
       id="g4967"><g
         id="g4969"
         clip-path="url(#clipPath4973)"><g
           id="g4975"
           transform="translate(310,20)"><path
             d="m 0,0 h -190 c -55.229,0 -100,44.771 -100,100 v 272 c 0,55.229 44.771,100 100,100 H 82 c 55.229,0 100,-44.771 100,-100 V 180.5"
             style="fill:none;stroke:#000000;stroke-width:40;stroke-linecap:round;stroke-linejoin:round;stroke-miterlimit:10;stroke-dasharray:none;stroke-opacity:1"
             id="path4977" /></g><g
           id="g4979"
           transform="translate(209,386)"><path
             d="M 0,0 H 183"
             style="fill:none;stroke:#000000;stroke-width:40;stroke-linecap:round;stroke-linejoin:round;stroke-miterlimit:10;stroke-dasharray:none;stroke-opacity:1"
             id="path4981" /></g><g
           id="g4983"
           transform="translate(120,306)"><path
             d="M 0,0 H 272"
             style="fill:none;stroke:#000000;stroke-width:40;stroke-linecap:round;stroke-linejoin:round;stroke-miterlimit:10;stroke-dasharray:none;stroke-opacity:1"
             id="path4985" /></g><g
           id="g4987"
           transform="translate(120,226)"><path
             d="M 0,0 H 72"
             style="fill:none;stroke:#000000;stroke-width:40;stroke-linecap:round;stroke-linejoin:round;stroke-miterlimit:10;stroke-dasharray:none;stroke-opacity:1"
             id="path4989" /></g><g
           id="g4991"
           transform="translate(100,388)"><path
             d="M 0,0 C 0,-13.807 11.193,-25 25,-25 38.807,-25 50,-13.807 50,0 50,13.808 38.807,25 25,25 11.193,25 0,13.808 0,0"
             style="fill:#000000;fill-opacity:1;fill-rule:nonzero;stroke:none"
             id="path4993" /></g><g
           id="g4995"
           transform="translate(476.4766,35.5234)"><path
             d="m 0,0 v 0 c 20.698,20.698 20.698,54.255 0,74.953 l -70.109,70.109 c -17.403,17.404 -39.569,29.265 -63.704,34.088 l -56.664,11.327 11.326,-56.665 c 4.824,-24.133 16.686,-46.299 34.089,-63.703 L -74.953,0 C -54.255,-20.698 -20.698,-20.698 0,0 Z"
             style="fill:none;stroke:#000000;stroke-width:40;stroke-linecap:round;stroke-linejoin:round;stroke-miterlimit:10;stroke-dasharray:none;stroke-opacity:1"
             id="path4997" /></g></g></g></g></svg>
