<svg viewBox="0 0 512.00052 512.00052" xmlns="http://www.w3.org/2000/svg"><path d="m392.773438 204.078125c-5.859376-5.855469-15.355469-5.855469-21.214844 0-5.859375 5.859375-5.859375 15.355469 0 21.214844 5.859375 5.855469 15.355468 5.855469 21.214844 0 5.855468-5.859375 5.855468-15.355469 0-21.214844zm0 0"/><path d="m223.066406 204.078125c-5.855468-5.859375-15.355468-5.859375-21.210937 0-5.859375 5.859375-5.859375 15.355469 0 21.214844 5.855469 5.855469 15.355469 5.855469 21.210937 0 5.859375-5.859375 5.859375-15.355469 0-21.214844zm0 0"/><path d="m329.136719 13.160156c-17.546875-17.546875-46.09375-17.546875-63.640625 0l-192.917969 192.917969c-5.863281 5.863281-5.863281 15.351563 0 21.214844l42.425781 42.425781c5.859375 5.863281 5.859375 15.351562 0 21.214844-5.863281 5.859375-15.351562 5.859375-21.214844 0l-42.425781-42.429688c-5.863281-5.859375-15.351562-5.859375-21.214843 0l-16.988282 16.992188c-17.546875 17.546875-17.546875 46.089844 0 63.636718l169.707032 169.707032c17.546874 17.546875 46.089843 17.546875 63.636718 0l16.992188-16.988282c5.863281-5.863281 5.863281-15.351562 0-21.214843l-42.425782-42.425781c-5.863281-5.863282-5.863281-15.351563 0-21.214844 5.863282-5.859375 15.347657-5.859375 21.210938 0l42.425781 42.425781c5.863281 5.863281 15.351563 5.863281 21.214844 0l192.917969-192.917969c17.546875-17.546875 17.546875-46.09375 0-63.640625zm-129.28125 362.625c-5.863281 5.863282-15.351563 5.863282-21.214844 0l-42.425781-42.425781c-5.863282-5.863281-5.863282-15.351563 0-21.214844 5.863281-5.863281 15.351562-5.863281 21.214844 0l42.425781 42.425781c5.863281 5.863282 5.863281 15.351563 0 21.214844zm44.425781-129.28125c-17.546875 17.546875-46.089844 17.546875-63.636719 0s-17.546875-46.089844 0-63.636718c17.546875-17.546876 46.089844-17.546876 63.636719 0 17.546875 17.546874 17.546875 46.089843 0 63.636718zm77.1875 88.957032c-8.128906 1.625-16.023438-3.636719-17.648438-11.765626l-42.425781-212.132812c-1.65625-8.101562 3.59375-16.003906 11.765625-17.652344 8.132813-1.625 16.023438 3.636719 17.652344 11.769532l42.425781 212.128906c1.605469 8.003906-3.519531 15.976562-11.769531 17.652344zm92.519531-88.957032c-17.546875 17.546875-46.09375 17.546875-63.640625 0-17.542968-17.546875-17.542968-46.089844 0-63.636718 17.546875-17.546876 46.09375-17.546876 63.640625 0 17.546875 17.546874 17.546875 46.089843 0 63.636718zm0 0"/></svg>