<svg height="512" viewBox="0 0 56 56" width="512" xmlns="http://www.w3.org/2000/svg"><g id="Page-1" fill="none" fill-rule="evenodd"><g id="001---Vet" fill="rgb(0,0,0)" fill-rule="nonzero"><path id="Shape" d="m29.449 42.091c-.9683975-2.7248983-.2756445-5.7639723 1.778-7.8.8260751-.8757968 1.5414327-1.8497579 2.13-2.9.913-1.491 1.849-3.017 3.643-3.818v-2.627c-.7370668.6624017-1.6930189 1.0288974-2.684 1.029-1.2675608-.0335635-2.4659998-.5850767-3.316-1.526-1.0888838-1.1702317-1.7834594-2.6524126-1.986-4.238-.2521963-1.57819-.003182-3.195734.712-4.625.6261187-1.3309668 1.8631867-2.2719301 3.313-2.52 1.5017405-.155573 2.9836251.4392759 3.961 1.59v-7.656c-.0044086-3.86416566-3.1358343-6.99559136-7-7h-4c-3.8641657.00440864-6.9955914 3.13583434-7 7v10c0 1.1045695-.8954305 2-2 2h-10c-3.86416566.0044086-6.99559136 3.1358343-7 7v4c.00440864 3.8641657 3.13583434 6.9955914 7 7h10c1.1045695 0 2 .8954305 2 2v10c.0044086 3.8641657 3.1358343 6.9955914 7 7h4c3.8641657-.0044086 6.9955914-3.1358343 7-7v-4.837c-.9275458.5724268-2.0013545.8631993-3.091.837-1.9538375.0768059-3.7427066-1.0899699-4.46-2.909zm-22.449-19.091c-1.65685425 0-3 1.3431458-3 3 0 .5522847-.44771525 1-1 1s-1-.4477153-1-1c.00330612-2.7600532 2.23994685-4.9966939 5-5 .55228475 0 1 .4477153 1 1s-.44771525 1-1 1zm5 0h-1c-.5522847 0-1-.4477153-1-1s.4477153-1 1-1h1c.5522847 0 1 .4477153 1 1s-.4477153 1-1 1zm14.952 9.995c-1.9082019-.1339739-3.5817785-1.3224949-4.337-3.08-1.2-2.482-.566-5.283 1.419-6.245s4.577.273 5.78 2.754.567 5.282-1.418 6.244c-.4501787.2174625-.9440545.3293028-1.444.327z"/><path id="Shape" d="m33.323 15.046c-.8120342.1664108-1.4932367.7156955-1.828 1.474-.5187952 1.055453-.6936611 2.2469893-.5 3.407.1419155 1.1673619.6454245 2.2610954 1.44 3.128.5038411.6755154 1.3367712 1.0213946 2.1709168.9014862.8341455-.1199084 1.5359221-.6864017 1.8290832-1.4764862.3852073-.7644912.5790912-1.6110603.565-2.467v-.03c-.0011781-.304521-.0235657-.6085902-.067-.91-.347-2.414-1.996-4.256-3.61-4.027z"/><path id="Shape" d="m25.5 25.337c-.2075654-.0023849-.412885.0431276-.6.133-.975.472-1.2 2.109-.491 3.572s2.131 2.3 3.109 1.827 1.2-2.109.49-3.572c-.4237954-1.055989-1.3808944-1.8039611-2.508-1.96z"/><path id="Shape" d="m44.937 32.435c-1.266-2.069-2.103-3.435-4.937-3.435s-3.671 1.366-4.937 3.435c-.6707244 1.1879128-1.4862915 2.2879878-2.428 3.275-1.4618303 1.4757927-1.9769847 3.6444577-1.335 5.62.4090704 1.0687966 1.4671238 1.7460481 2.609 1.67.9118534.0207057 1.802478-.2766406 2.519-.841 2.1306385-1.5452999 5.0133615-1.5452999 7.144 0 .716522.5643594 1.6071466.8617057 2.519.841 1.1418762.0760481 2.1999296-.6012034 2.609-1.67.6414758-1.9759124.1255365-4.1446329-1.337-5.62-.9410064-.987127-1.7558979-2.087197-2.426-3.275z"/><path id="Shape" d="m49.006 19.927c-.275 1.914-1.692 4.3-3.61 4.027s-2.605-2.954-2.329-4.881c.3-2.066 1.789-4.289 3.61-4.027 1.905.274 2.608 2.945 2.329 4.881z"/><path id="Shape" d="m55.585 29.042c-.71 1.462-2.134 2.3-3.108 1.827s-1.2-2.109-.491-3.572c.6-1.236 2-2.363 3.108-1.827.975.472 1.2 2.109.491 3.572z"/></g></g></svg>