<?xml version="1.0"?>
<svg xmlns="http://www.w3.org/2000/svg" viewBox="0 0 24 24"><g id="Layer_2" data-name="Layer 2"><path d="M15.12012,19A7.47433,7.47433,0,0,1,8.5,23H2a.99893.99893,0,0,1-.6001-1.8l1.29-.97A7.48286,7.48286,0,0,1,5.02,8.86c-.01.21-.02.43-.02.64A9.50861,9.50861,0,0,0,14.5,19Z"/><path d="M22.6001,16.2002l-1.61817-1.21387A8.49291,8.49291,0,1,0,14.5,18H22a.99988.99988,0,0,0,.6001-1.7998ZM14.5,14.5a1,1,0,1,1,1-1A1,1,0,0,1,14.5,14.5Zm1-3.877V11a1,1,0,0,1-2,0v-.42676a1.90081,1.90081,0,0,1,1.32568-1.834,1.1458,1.1458,0,0,0,.77539-1.417A1.11906,1.11906,0,0,0,14.8208,6.541a1.16411,1.16411,0,0,0-1.01953.19726,1.13648,1.13648,0,0,0-.44434.9043,1,1,0,0,1-2,0A3.14459,3.14459,0,1,1,15.5,10.623Z"/></g></svg>
