<svg id="Layer_1" enable-background="new 0 0 512 512" height="512" viewBox="0 0 512 512" width="512" xmlns="http://www.w3.org/2000/svg"><g><path d="m489.727 1.073c-2.784-.701-5.746-1.073-8.859-1.073-5.046 0-10.456.95-16.077 2.825l-435.427 145.143c-15.04 5.013-25.407 15.258-28.441 28.109-3.035 12.853 1.653 26.655 12.864 37.869 1.097 1.097 2.356 2.017 3.735 2.728l169.323 87.281z"/><path d="m208.059 325.168 87.285 169.325c.711 1.378 1.63 2.637 2.726 3.732 9.009 9.011 19.399 13.773 30.049 13.774h.003c16.129 0 29.895-11.247 35.926-29.35l145.144-435.424c3.021-9.067 3.569-17.592 1.731-24.923z"/></g></svg>