<svg id="Layer_1" height="512" viewBox="0 0 48 48" width="512" xmlns="http://www.w3.org/2000/svg" data-name="Layer 1"><path d="m24 6h-1.146a3.98 3.98 0 0 0 -7.715 0h-1.139a2 2 0 0 0 -2 2v2a3 3 0 0 0 3 3h8a3 3 0 0 0 3-3v-2a2 2 0 0 0 -2-2z"/><path d="m36 27a9 9 0 1 0 9 9 9.01 9.01 0 0 0 -9-9zm4.707 7.707-5 5a1 1 0 0 1 -1.414 0l-2-2a1 1 0 0 1 1.414-1.414l1.293 1.293 4.293-4.293a1 1 0 0 1 1.414 1.414z"/><path d="m19.01 32c.547-.039 3.193-1.343 5.258-5.055.455-.818 1.32-2.88-.486-4.342a3.05 3.05 0 0 0 -2.662-.484 1.641 1.641 0 0 0 -1.157 1.164 1 1 0 0 1 -1.924 0 1.607 1.607 0 0 0 -1.239-1.125 3.162 3.162 0 0 0 -2.784.63 3.31 3.31 0 0 0 -.277 4.157c2.061 3.713 4.707 5.017 5.271 5.055z"/><path d="m9 15v24h16.42a10.609 10.609 0 0 1 -.42-3 11.009 11.009 0 0 1 4-8.49v-12.51zm17.02 12.92c-2.31 4.15-5.55 6.08-7.02 6.08s-4.71-1.93-7.01-6.08c-1.35-2.41-1.11-4.87.62-6.56a5.119 5.119 0 0 1 4.7-1.13 3.958 3.958 0 0 1 1.67.89 3.716 3.716 0 0 1 1.54-.91 5.037 5.037 0 0 1 4.52.84c2.04 1.65 2.41 4.28.98 6.87z"/><path d="m30 7h-2v3a4.886 4.886 0 0 1 -1.01 3h2.01a2.006 2.006 0 0 1 2 2v11.2a10.821 10.821 0 0 1 4-1.15v-13.05a5 5 0 0 0 -5-5zm-3.8 34h-17.2a2.006 2.006 0 0 1 -2-2v-24a2.006 2.006 0 0 1 2-2h2a4.941 4.941 0 0 1 -1-3v-3h-2a5 5 0 0 0 -5 5v28a5 5 0 0 0 5 5h21.68a11.1 11.1 0 0 1 -3.48-4z"/></svg>