<?xml version="1.0"?>
<svg xmlns="http://www.w3.org/2000/svg" viewBox="0 0 64 64" width="512" height="512"><g id="Solid"><path d="M40.132,18.5l-2.973-5.2-5.23,13.077A1,1,0,0,1,31,27h-.041a1,1,0,0,1-.915-.7L26.7,15.438l-1.847,3.077A1,1,0,0,1,24,19H17V17h6.434l2.709-4.515a1,1,0,0,1,1.813.221L31.123,23l4.948-12.371a1,1,0,0,1,1.8-.125L41.58,17h9c1.591-6.617-1.92-10.143-1.92-10.143A9.609,9.609,0,0,0,40.973,3C35.846,3,32,6.857,32,6.857S28.154,3,23.027,3a9.609,9.609,0,0,0-7.691,3.857S3.8,18.429,32,39c11.136-8.123,16.073-14.842,17.973-20H41A1,1,0,0,1,40.132,18.5Z"/><path d="M59,15a3,3,0,0,0-2.816,2h-5.6a18.019,18.019,0,0,1-.611,2h6.211A2.995,2.995,0,1,0,59,15Zm0,4a1,1,0,1,1,1-1A1,1,0,0,1,59,19Z"/><rect x="2" y="17" width="8" height="2"/><path d="M60.668,39.172a3.731,3.731,0,0,0-4.819-1.285l-5.468,2.8a4.009,4.009,0,0,1-1.631,4.988l-11.129,6.6a11.815,11.815,0,0,1-8.68,1.368L18.885,51.236l.465-1.945,10.036,2.4A9.845,9.845,0,0,0,36.6,50.554l11.128-6.6a2.012,2.012,0,0,0,.708-2.738,4.531,4.531,0,0,0-5.992-1.765l-8.071,4.142a3.938,3.938,0,0,1-3.646-.024l-5.5-2.921a11.79,11.79,0,0,0-11.747.415l3.136,14.949,1.67-.36a7.8,7.8,0,0,1,2.669-.106l12.491,1.37a9.71,9.71,0,0,0,6.7-1.566l19.973-13.4a2.019,2.019,0,0,0,.552-2.777Z"/><path d="M3,39.487,7.514,61l7.759-1.67L10.758,37.817Zm3.927,4.26-.411-1.956,1.957-.411.411,1.955Z"/></g></svg>
