<svg height="512" viewBox="0 0 44 58" width="512" xmlns="http://www.w3.org/2000/svg"><g id="Page-1" fill="none" fill-rule="evenodd"><g id="025---Vaccine" fill="rgb(0,0,0)" fill-rule="nonzero"><path id="Rectangle-path" d="m8 48h4v6h-4z"/><path id="Shape" d="m2 44h-2c0 1.1045695.8954305 2 2 2h16c1.1045695 0 2-.8954305 2-2z"/><path id="Shape" d="m16 56h-12c-.55228475 0-1 .4477153-1 1v1h14v-1c0-.5522847-.4477153-1-1-1z"/><path id="Shape" d="m8 34c1.81631841.0026099 3.5949254-.5181612 5.123-1.5 1.1812099-.7371925 2.5004764-1.2254947 3.877-1.435v-12.065c0-.5522847-.4477153-1-1-1h-12c-.55228475 0-1 .4477153-1 1v5h2c.55228475 0 1 .4477153 1 1s-.44771525 1-1 1h-2v3h2c.55228475 0 1 .4477153 1 1s-.44771525 1-1 1h-2v.794c.246.489 1.369 2.206 5 2.206z"/><path id="Shape" d="m17 33.09c-1.0330051.2115268-2.0202991.6046161-2.916 1.161-1.8220368 1.1460763-3.9314906 1.7524922-6.084 1.749-1.76522704.076894-3.51122406-.39243-5-1.344v3.344h2c.55228475 0 1 .4477153 1 1s-.44771525 1-1 1h-2v2h14z"/><path id="Shape" d="m14 15c0-.5522847-.4477153-1-1-1h-2v-13c0-.55228475-.4477153-1-1-1-.55228475 0-1 .44771525-1 1v13h-2c-.55228475 0-1 .4477153-1 1v1h8z"/><path id="Shape" d="m40 28h1v-2h-2-8-2v2h1z"/><path id="Shape" d="m38 23c0-.5522847-.4477153-1-1-1h-4c-.5522847 0-1 .4477153-1 1v1h6z"/><path id="Shape" d="m26 57c0 .5522847.4477153 1 1 1h16c.5522847 0 1-.4477153 1-1v-3h-18z"/><path id="Shape" d="m26 52h18v-10h-18zm7-6h1v-1c0-.5522847.4477153-1 1-1s1 .4477153 1 1v1h1c.5522847 0 1 .4477153 1 1s-.4477153 1-1 1h-1v1c0 .5522847-.4477153 1-1 1s-1-.4477153-1-1v-1h-1c-.5522847 0-1-.4477153-1-1s.4477153-1 1-1z"/><path id="Shape" d="m43.121 36.536-2.656-2.658c-.9407469-.9354554-1.4682579-2.2083233-1.465-3.535v-.343h-8v.343c.0037456 1.3265763-.523431 2.5995062-1.464 3.535l-2.658 2.658c-.5604328.5638746-.8759163 1.3259937-.878 2.121v1.343h18v-1.343c-.0020248-.795214-.3179251-1.5574716-.879-2.121z"/></g></g></svg>