<svg id="a" height="512" viewBox="0 0 60 60" width="512" xmlns="http://www.w3.org/2000/svg"><path d="m30 32c8.271 0 15-6.729 15-15s-6.729-15-15-15-15 6.729-15 15 6.729 15 15 15zm10-19c1.654 0 3 1.57 3 3.5s-1.346 3.5-3 3.5-3-1.57-3-3.5 1.346-3.5 3-3.5zm-6-7c1.682 0 3 1.757 3 4s-1.318 4-3 4-3-1.757-3-4 1.318-4 3-4zm1.398 12.461c.4.669.778 1.301 1.309 1.832 1.318 1.318 1.707 3.406.965 5.195-.651 1.572-2.024 2.512-3.672 2.512-1.371 0-2.352-.406-3.069-.703-.384-.159-.716-.297-.931-.297s-.547.138-.931.297c-.717.297-1.698.703-3.069.703-1.648 0-3.021-.939-3.672-2.512-.741-1.789-.353-3.877.965-5.195.531-.531.909-1.163 1.309-1.832.97-1.622 2.069-3.461 5.398-3.461s4.428 1.839 5.398 3.461zm-9.398-12.461c1.682 0 3 1.757 3 4s-1.318 4-3 4-3-1.757-3-4 1.318-4 3-4zm-9 10.5c0-1.93 1.346-3.5 3-3.5s3 1.57 3 3.5-1.346 3.5-3 3.5-3-1.57-3-3.5z"/><path d="m13.051 18h-10.051c-.551 0-1 .448-1 1 0 .267.102.513.288.694.199.203.445.306.712.306h10.281c-.117-.654-.191-1.322-.231-2z"/><path d="m14.526 10h-8.526c-.551 0-1 .448-1 1v5h8.051c.125-2.129.635-4.151 1.475-6z"/><ellipse cx="26" cy="10" rx="1" ry="2"/><ellipse cx="34" cy="10" rx="1" ry="2"/><ellipse cx="40" cy="16.5" rx="1" ry="1.5"/><path d="m55 16v-5c0-.552-.448-1-1-1h-8.526c.84 1.849 1.35 3.871 1.475 6z"/><path d="m24.175 24.723c.198.477.697 1.277 1.825 1.277.973 0 1.649-.28 2.304-.552.557-.23 1.083-.448 1.696-.448s1.139.218 1.696.448c.654.271 1.331.552 2.304.552 1.127 0 1.627-.801 1.825-1.277.428-1.034.209-2.274-.532-3.016-.707-.707-1.188-1.511-1.612-2.221-.895-1.497-1.487-2.486-3.681-2.486s-2.786.989-3.681 2.486c-.424.71-.905 1.514-1.612 2.221-.741.741-.96 1.981-.532 3.016z"/><ellipse cx="20" cy="16.5" rx="1" ry="1.5"/><path d="m46 39v11h10v-12h-9c-.551 0-1 .448-1 1z"/><path d="m30 34c-7.634 0-14.107-5.059-16.247-12h-9.753v14h9c1.654 0 3 1.346 3 3v11h2v-11c0-1.654 1.346-3 3-3h18c1.654 0 3 1.346 3 3v11h2v-11c0-1.654 1.346-3 3-3h9v-14h-9.753c-2.14 6.941-8.613 12-16.247 12z"/><path d="m39 38h-8v20h9v-19c0-.552-.449-1-1-1z"/><path d="m42 58h13c.552 0 1-.448 1-1v-5h-14z"/><path d="m4 57c0 .552.449 1 1 1h13v-6h-14z"/><path d="m20 39v19h9v-20h-8c-.551 0-1 .448-1 1z"/><path d="m14 39c0-.552-.449-1-1-1h-9v12h10z"/><path d="m57.713 18.307c-.199-.204-.446-.307-.713-.307h-10.051c-.04.678-.114 1.346-.231 2h10.281c.552 0 1-.448 1-1 0-.267-.103-.514-.287-.693z"/></svg>