<svg id="Icons" height="512" viewBox="0 0 60 60" width="512" xmlns="http://www.w3.org/2000/svg"><path d="m13 60h28a4 4 0 0 0 4-4v-16a6.006 6.006 0 0 0 6-6v-14a6.007 6.007 0 0 0 -6-6v-10a4 4 0 0 0 -4-4h-28a4 4 0 0 0 -4 4v52a4 4 0 0 0 4 4zm-2-4v-2h12.556a3.875 3.875 0 0 0 0 4h-10.556a2 2 0 0 1 -2-2zm18 0a2 2 0 1 1 -2-2 2 2 0 0 1 2 2zm12 2h-10.556a3.875 3.875 0 0 0 0-4h12.556v2a2 2 0 0 1 -2 2zm8-38v14a4 4 0 0 1 -4 4h-8.7a1 1 0 0 0 -.669.257l-7.259 6.53a.824.824 0 0 1 -1.372-.615v-5.172a1 1 0 0 0 -1-1h-1a4 4 0 0 1 -4-4v-14a4 4 0 0 1 4-4h20a4 4 0 0 1 4 4zm-24-6a6.007 6.007 0 0 0 -6 6v14a6.006 6.006 0 0 0 6 6v4.171a2.791 2.791 0 0 0 1.674 2.579 2.836 2.836 0 0 0 1.162.25 2.791 2.791 0 0 0 1.873-.727l6.975-6.273h6.316v12h-32v-44h32v6zm-12-12h28a2 2 0 0 1 2 2v2h-32v-2a2 2 0 0 1 2-2z"/><path d="m44 23h-18a1 1 0 0 0 0 2h18a1 1 0 0 0 0-2z"/><path d="m39 29h-13a1 1 0 0 0 0 2h13a1 1 0 0 0 0-2z"/></svg>