<svg id="Layer_1" enable-background="new 0 0 90 90" height="512" viewBox="0 0 90 90" width="512" xmlns="http://www.w3.org/2000/svg"><path d="m31.449 68.689c-.043.428-.006.875.15 1.318.381 1.068 1.275 1.938 2.334 2.266.984.311 1.963.104 2.26-.219l2.053-2.203c.594-.635.744-1.65.395-2.635-.859-1.646-2.01-2.24-3.484-2.506z"/><path d="m28.703 57.674-3.588 3.848c-.729.793-.938 2.012-.531 3.18.432 1.234 1.463 2.238 2.697 2.613 1.168.35 2.34.078 3.074-.703l3.322-3.563c.734-.791.938-2.004.531-3.172-.432-1.24-1.469-2.24-2.697-2.613-.98-.313-2.13-.325-2.808.41z"/><path d="m21.59 51.342-3.313 3.557c-.73.787-.934 2.01-.531 3.182.432 1.23 1.463 2.234 2.697 2.609 1.166.355 2.35.078 2.719-.313l3.678-3.947c.734-.793.938-2.012.531-3.178-.434-1.238-1.465-2.238-2.699-2.609-1.135-.37-2.391-.041-3.082.699z"/><path d="m15.109 44.33-3.672 3.949c-.734.791-.938 2.004-.531 3.166.428 1.244 1.465 2.244 2.699 2.619 1.166.348 2.348.078 2.713-.318l3.682-3.947v-.004c.734-.781.938-1.996.531-3.162-.426-1.244-1.463-2.244-2.697-2.615-.943-.325-2.084-.381-2.725.312z"/><path d="m62.781 20.779c-2.375 1.328-5.676 1.566-8.891 1.797-2.432.166-4.941.342-6.744 1.008l-10.025 3.699c-.068.027-.137.043-.209.053-.484.076-.932.141-1.334.197-2.441.344-2.723.449-3.004 1.172-.256.668.025 1.631.719 2.449.566.672 2.781 2.77 7.338 1.691l5.709-.754c3.197-.412 5.76 1.672 7.807 3.354l15.353 12.282.012-.006c3.035-1.27 6.197-2.922 8.885-6.16z"/><path d="m41.656 20.033c-.91.084-1.953.199-3.047.313-6.051.646-9.406.9-11.113.584l-15.709 20.447c.578.547 1.057 1.115 1.443 1.73 1.313-1.344 3.297-1.824 5.229-1.24 1.896.572 3.479 2.109 4.141 4.016.281.807.369 1.635.297 2.428.775-.109 1.594-.064 2.4.182 1.891.568 3.48 2.109 4.137 4.016.285.803.375 1.629.307 2.422.775-.109 1.594-.063 2.4.188 1.887.572 3.469 2.109 4.131 4.006.416 1.203.432 2.441.094 3.551.193.037.391.084.588.146 1.693.525 3.131 1.916 3.75 3.631.59 1.66.334 3.404-.635 4.656l2.787 2.229c.682.541 1.676.6 2.604.15 1.006-.488 1.766-1.479 1.99-2.588.094-.463.063-.912-.043-1.328l-3.535-2.828c-.475-.381-.559-1.084-.188-1.572.375-.484 1.063-.574 1.541-.193l4.25 3.406c.422.338 1.631.428 2.74-.094 1.166-.557 2.047-1.705 2.291-2.986.234-1.211-.141-2.385-.975-3.057l-3.844-3.076c-.479-.381-.563-1.086-.188-1.568.371-.49 1.063-.58 1.537-.193l5.588 4.469c.84.668 2.047.76 3.162.24 1.156-.553 2.037-1.699 2.287-2.994.234-1.211-.141-2.381-.984-3.059l-5.59-4.463c-.479-.385-.563-1.088-.188-1.58.375-.482 1.063-.566 1.543-.186 0 0 8.488 6.787 8.494 6.787.422.332 1.625.426 2.729-.102 1.168-.545 2.043-1.691 2.297-2.982.23-1.213-.145-2.391-.984-3.057l-16.613-13.295c-1.906-1.563-3.875-3.182-6.162-2.875l-5.594.73c-3.771.906-7.328.01-9.385-2.422-1.24-1.465-1.662-3.277-1.105-4.734.781-2.021 2.277-2.23 4.746-2.578.369-.047.766-.105 1.203-.174l9.922-3.66c.645-.24 1.359-.406 2.098-.553-2.551-.987-4.4-1.046-6.844-.89z"/><path d="m20.094 16.158c-1.807-.137-3.457 1.225-5.832 4.318l-6.074 7.912c-2.197 2.854-3.02 4.629-2.838 6.133.146 1.236 1.006 2.449 1.859 3.133l2.881 2.301 15.645-20.363-2.025-1.621c-1.392-1.11-2.532-1.729-3.616-1.813z"/><path d="m70.262 16.137c-1.084.068-2.234.674-3.637 1.768l-2.047 1.588 15.428 20.529 1.994-1.551c1.725-1.338 2.605-2.535 2.766-3.77.199-1.5-.598-3.289-2.76-6.18l-5.975-7.988c-2.328-3.125-3.957-4.512-5.769-4.396z"/></svg>